<svg width="9" height="10" viewBox="0 0 9 10" fill="none" xmlns="http://www.w3.org/2000/svg">
<path fill-rule="evenodd" clip-rule="evenodd" d="M2.5 2.5C2.5 1.96957 2.71071 1.46086 3.08579 1.08579C3.46086 0.710714 3.96957 0.5 4.5 0.5C5.03043 0.5 5.53914 0.710714 5.91421 1.08579C6.28929 1.46086 6.5 1.96957 6.5 2.5C6.5 3.03043 6.28929 3.53914 5.91421 3.91421C5.53914 4.28929 5.03043 4.5 4.5 4.5C3.96957 4.5 3.46086 4.28929 3.08579 3.91421C2.71071 3.53914 2.5 3.03043 2.5 2.5ZM2.5 5.5C1.83696 5.5 1.20107 5.76339 0.732233 6.23223C0.263392 6.70107 0 7.33696 0 8C0 8.39782 0.158035 8.77936 0.43934 9.06066C0.720644 9.34196 1.10218 9.5 1.5 9.5H7.5C7.89782 9.5 8.27936 9.34196 8.56066 9.06066C8.84196 8.77936 9 8.39782 9 8C9 7.33696 8.73661 6.70107 8.26777 6.23223C7.79893 5.76339 7.16304 5.5 6.5 5.5H2.5Z" fill="white"/>
</svg>
